<svg width="185" height="72" viewBox="0 0 185 72" fill="none" xmlns="http://www.w3.org/2000/svg">
<path d="M5.36 58.28C3.97333 58.28 3.28 57.5733 3.28 56.16V31.6C3.28 30.2133 3.97333 29.52 5.36 29.52C6.74667 29.52 7.44 30.2133 7.44 31.6V42.48H7.52L19.8 30.6C20.5467 29.88 21.3333 29.52 22.16 29.52C22.7733 29.52 23.2133 29.68 23.48 30C23.7733 30.2933 23.8933 30.6667 23.84 31.12C23.7867 31.5467 23.56 31.9467 23.16 32.32L11.48 43.44L23.76 55.24C24.24 55.72 24.4933 56.2 24.52 56.68C24.5467 57.1333 24.4 57.52 24.08 57.84C23.76 58.1333 23.3067 58.28 22.72 58.28C22.1867 58.28 21.7467 58.1733 21.4 57.96C21.08 57.7467 20.72 57.44 20.32 57.04L7.52 44.84H7.44V56.16C7.44 57.5733 6.74667 58.28 5.36 58.28ZM35.1125 58.36C30.3925 58.36 28.0325 55.7333 28.0325 50.48V40.24C28.0325 38.88 28.6992 38.2 30.0325 38.2C31.3925 38.2 32.0725 38.88 32.0725 40.24V50.52C32.0725 52.0933 32.3925 53.2533 33.0325 54C33.6725 54.7467 34.6858 55.12 36.0725 55.12C37.5925 55.12 38.8192 54.6133 39.7525 53.6C40.7125 52.5867 41.1925 51.2267 41.1925 49.52V40.24C41.1925 38.88 41.8725 38.2 43.2325 38.2C44.5658 38.2 45.2325 38.88 45.2325 40.24V56.24C45.2325 57.6 44.5792 58.28 43.2725 58.28C41.9658 58.28 41.3125 57.6 41.3125 56.24V54.88C40.6725 56.0267 39.8192 56.8933 38.7525 57.48C37.6858 58.0667 36.4725 58.36 35.1125 58.36ZM52.9259 58.28C51.5926 58.28 50.9259 57.6 50.9259 56.24V31.56C50.9259 30.2 51.5926 29.52 52.9259 29.52C54.2859 29.52 54.9659 30.2 54.9659 31.56V47H55.0459L62.5259 39.56C62.9526 39.1333 63.3393 38.8 63.6859 38.56C64.0326 38.32 64.4859 38.2 65.0459 38.2C65.8726 38.2 66.4059 38.5067 66.6459 39.12C66.9126 39.7333 66.7526 40.3467 66.1659 40.96L59.1659 47.88L66.8859 55.52C67.3126 55.9467 67.5126 56.3733 67.4859 56.8C67.4593 57.2267 67.2859 57.5867 66.9659 57.88C66.6459 58.1467 66.2459 58.28 65.7659 58.28C65.1526 58.28 64.6593 58.16 64.2859 57.92C63.9393 57.68 63.5259 57.32 63.0459 56.84L55.0459 49.08H54.9659V56.24C54.9659 57.6 54.2859 58.28 52.9259 58.28ZM78.5109 58.36C73.7909 58.36 71.4309 55.7333 71.4309 50.48V40.24C71.4309 38.88 72.0976 38.2 73.4309 38.2C74.7909 38.2 75.4709 38.88 75.4709 40.24V50.52C75.4709 52.0933 75.7909 53.2533 76.4309 54C77.0709 54.7467 78.0843 55.12 79.4709 55.12C80.9909 55.12 82.2176 54.6133 83.1509 53.6C84.1109 52.5867 84.5909 51.2267 84.5909 49.52V40.24C84.5909 38.88 85.2709 38.2 86.6309 38.2C87.9643 38.2 88.6309 38.88 88.6309 40.24V56.24C88.6309 57.6 87.9776 58.28 86.6709 58.28C85.3643 58.28 84.7109 57.6 84.7109 56.24V54.88C84.0709 56.0267 83.2176 56.8933 82.1509 57.48C81.0843 58.0667 79.8709 58.36 78.5109 58.36ZM96.8444 58.28C95.4577 58.28 94.7644 57.5733 94.7644 56.16V31.92C94.7644 30.5067 95.471 29.8 96.8844 29.8H106.444C109.484 29.8 111.831 30.56 113.484 32.08C115.138 33.5733 115.964 35.68 115.964 38.4C115.964 41.1467 115.138 43.28 113.484 44.8C111.831 46.2933 109.484 47.04 106.444 47.04H98.9244V56.16C98.9244 57.5733 98.231 58.28 96.8444 58.28ZM98.9244 43.72H105.844C109.898 43.72 111.924 41.9467 111.924 38.4C111.924 34.88 109.898 33.12 105.844 33.12H98.9244V43.72ZM125.252 58.36C123.892 58.36 122.679 58.0933 121.612 57.56C120.545 57.0267 119.692 56.3067 119.052 55.4C118.439 54.4933 118.132 53.4667 118.132 52.32C118.132 50.88 118.492 49.7467 119.212 48.92C119.959 48.0933 121.172 47.4933 122.852 47.12C124.559 46.7467 126.852 46.56 129.732 46.56H131.092V45.52C131.092 44 130.772 42.9067 130.132 42.24C129.492 41.5733 128.439 41.24 126.972 41.24C126.119 41.24 125.225 41.3467 124.292 41.56C123.385 41.7733 122.439 42.1333 121.452 42.64C120.892 42.9067 120.425 42.9467 120.052 42.76C119.705 42.5733 119.465 42.28 119.332 41.88C119.199 41.48 119.212 41.0667 119.372 40.64C119.532 40.2133 119.865 39.8933 120.372 39.68C121.545 39.1467 122.705 38.76 123.852 38.52C124.999 38.2533 126.079 38.12 127.092 38.12C129.759 38.12 131.732 38.76 133.012 40.04C134.292 41.2933 134.932 43.2667 134.932 45.96V56.24C134.932 57.6 134.305 58.28 133.052 58.28C131.772 58.28 131.132 57.6 131.132 56.24V54.76C130.652 55.88 129.905 56.76 128.892 57.4C127.879 58.04 126.665 58.36 125.252 58.36ZM126.052 55.48C127.492 55.48 128.692 54.9733 129.652 53.96C130.612 52.9467 131.092 51.6667 131.092 50.12V49.04H129.772C127.825 49.04 126.292 49.1333 125.172 49.32C124.079 49.5067 123.292 49.8267 122.812 50.28C122.359 50.7067 122.132 51.3067 122.132 52.08C122.132 53.0933 122.479 53.92 123.172 54.56C123.865 55.1733 124.825 55.48 126.052 55.48ZM144.901 65.48C144.154 65.48 143.634 65.2 143.341 64.64C143.074 64.1067 143.101 63.48 143.421 62.76L145.781 57.48L138.661 40.96C138.341 40.24 138.328 39.6 138.621 39.04C138.941 38.48 139.554 38.2 140.461 38.2C140.941 38.2 141.328 38.32 141.621 38.56C141.941 38.8 142.221 39.2133 142.461 39.8L147.941 53.32L153.501 39.8C153.741 39.1867 154.021 38.7733 154.341 38.56C154.661 38.32 155.101 38.2 155.661 38.2C156.381 38.2 156.874 38.48 157.141 39.04C157.408 39.6 157.394 40.2267 157.101 40.92L147.101 63.92C146.834 64.5333 146.528 64.9467 146.181 65.16C145.861 65.3733 145.434 65.48 144.901 65.48Z" fill="white"/>
<path d="M184.16 23.503C184.16 23.503 181.341 21.2352 170.071 26.7218C158.801 32.2083 159.403 31.693 159.403 31.693L151.242 17.3526C151.242 17.3526 174.448 4.24938 177.806 7.61661L184.16 23.503Z" fill="#5CACFC"/>
<path d="M163.153 26.5793C166.091 26.5793 168.473 24.1975 168.473 21.2593C168.473 18.3212 166.091 15.9393 163.153 15.9393C160.215 15.9393 157.833 18.3212 157.833 21.2593C157.833 24.1975 160.215 26.5793 163.153 26.5793Z" fill="#013684"/>
<path d="M163.153 24.0968C164.72 24.0968 165.99 22.8264 165.99 21.2593C165.99 19.6923 164.72 18.4219 163.153 18.4219C161.586 18.4219 160.316 19.6923 160.316 21.2593C160.316 22.8264 161.586 24.0968 163.153 24.0968Z" fill="#5CACFC"/>
<path d="M151.916 17.6302C151.916 17.6302 170.381 3.81854 174.664 4.52699C178.948 5.23543 176.512 -1.32766 164.85 7.37526L151.526 17.0944L151.916 17.6302Z" fill="#5CACFC"/>
<path d="M151.795 17.2766C151.795 17.2766 168.614 1.50367 172.952 1.73298C177.289 1.96229 174.139 -4.29425 163.51 5.65177L151.345 16.7866L151.795 17.2766Z" fill="#5CACFC"/>
<path d="M151.575 16.5572L151 17.056L151.998 18.2078L152.574 17.709L151.575 16.5572Z" fill="#5CACFC"/>
</svg>
