<svg width="182" height="69" viewBox="0 0 182 69" fill="none" xmlns="http://www.w3.org/2000/svg">
<path d="M5.092 56.266C3.77467 56.266 3.116 55.5947 3.116 54.252V30.92C3.116 29.6027 3.77467 28.944 5.092 28.944C6.40933 28.944 7.068 29.6027 7.068 30.92V41.256H7.144L18.81 29.97C19.5193 29.286 20.2667 28.944 21.052 28.944C21.6347 28.944 22.0527 29.096 22.306 29.4C22.5847 29.6787 22.6987 30.0333 22.648 30.464C22.5973 30.8693 22.382 31.2493 22.002 31.604L10.906 42.168L22.572 53.378C23.028 53.834 23.2687 54.29 23.294 54.746C23.3193 55.1767 23.18 55.544 22.876 55.848C22.572 56.1267 22.1413 56.266 21.584 56.266C21.0773 56.266 20.6593 56.1647 20.33 55.962C20.026 55.7593 19.684 55.468 19.304 55.088L7.144 43.498H7.068V54.252C7.068 55.5947 6.40933 56.266 5.092 56.266ZM33.3569 56.342C28.8729 56.342 26.6309 53.8467 26.6309 48.856V39.128C26.6309 37.836 27.2642 37.19 28.5309 37.19C29.8229 37.19 30.4689 37.836 30.4689 39.128V48.894C30.4689 50.3887 30.7729 51.4907 31.3809 52.2C31.9889 52.9093 32.9515 53.264 34.2689 53.264C35.7129 53.264 36.8782 52.7827 37.7649 51.82C38.6769 50.8573 39.1329 49.5653 39.1329 47.944V39.128C39.1329 37.836 39.7789 37.19 41.0709 37.19C42.3375 37.19 42.9709 37.836 42.9709 39.128V54.328C42.9709 55.62 42.3502 56.266 41.1089 56.266C39.8675 56.266 39.2469 55.62 39.2469 54.328V53.036C38.6389 54.1253 37.8282 54.9487 36.8149 55.506C35.8015 56.0633 34.6489 56.342 33.3569 56.342ZM50.2796 56.266C49.013 56.266 48.3796 55.62 48.3796 54.328V30.882C48.3796 29.59 49.013 28.944 50.2796 28.944C51.5716 28.944 52.2176 29.59 52.2176 30.882V45.55H52.2936L59.3996 38.482C59.805 38.0767 60.1723 37.76 60.5016 37.532C60.831 37.304 61.2616 37.19 61.7936 37.19C62.579 37.19 63.0856 37.4813 63.3136 38.064C63.567 38.6467 63.415 39.2293 62.8576 39.812L56.2076 46.386L63.5416 53.644C63.947 54.0493 64.137 54.4547 64.1116 54.86C64.0863 55.2653 63.9216 55.6073 63.6176 55.886C63.3136 56.1393 62.9336 56.266 62.4776 56.266C61.895 56.266 61.4263 56.152 61.0716 55.924C60.7423 55.696 60.3496 55.354 59.8936 54.898L52.2936 47.526H52.2176V54.328C52.2176 55.62 51.5716 56.266 50.2796 56.266ZM74.5854 56.342C70.1014 56.342 67.8594 53.8467 67.8594 48.856V39.128C67.8594 37.836 68.4927 37.19 69.7594 37.19C71.0514 37.19 71.6974 37.836 71.6974 39.128V48.894C71.6974 50.3887 72.0014 51.4907 72.6094 52.2C73.2174 52.9093 74.1801 53.264 75.4974 53.264C76.9414 53.264 78.1067 52.7827 78.9934 51.82C79.9054 50.8573 80.3614 49.5653 80.3614 47.944V39.128C80.3614 37.836 81.0074 37.19 82.2994 37.19C83.5661 37.19 84.1994 37.836 84.1994 39.128V54.328C84.1994 55.62 83.5787 56.266 82.3374 56.266C81.0961 56.266 80.4754 55.62 80.4754 54.328V53.036C79.8674 54.1253 79.0567 54.9487 78.0434 55.506C77.0301 56.0633 75.8774 56.342 74.5854 56.342ZM92.0022 56.266C90.6848 56.266 90.0262 55.5947 90.0262 54.252V31.224C90.0262 29.8813 90.6975 29.21 92.0402 29.21H101.122C104.01 29.21 106.239 29.932 107.81 31.376C109.381 32.7947 110.166 34.796 110.166 37.38C110.166 39.9893 109.381 42.016 107.81 43.46C106.239 44.8787 104.01 45.588 101.122 45.588H93.9782V54.252C93.9782 55.5947 93.3195 56.266 92.0022 56.266ZM93.9782 42.434H100.552C104.403 42.434 106.328 40.7493 106.328 37.38C106.328 34.036 104.403 32.364 100.552 32.364H93.9782V42.434ZM118.989 56.342C117.697 56.342 116.545 56.0887 115.531 55.582C114.518 55.0753 113.707 54.3913 113.099 53.53C112.517 52.6687 112.225 51.6933 112.225 50.604C112.225 49.236 112.567 48.1593 113.251 47.374C113.961 46.5887 115.113 46.0187 116.709 45.664C118.331 45.3093 120.509 45.132 123.245 45.132H124.537V44.144C124.537 42.7 124.233 41.6613 123.625 41.028C123.017 40.3947 122.017 40.078 120.623 40.078C119.813 40.078 118.964 40.1793 118.077 40.382C117.216 40.5847 116.317 40.9267 115.379 41.408C114.847 41.6613 114.404 41.6993 114.049 41.522C113.72 41.3447 113.492 41.066 113.365 40.686C113.239 40.306 113.251 39.9133 113.403 39.508C113.555 39.1027 113.872 38.7987 114.353 38.596C115.468 38.0893 116.57 37.722 117.659 37.494C118.749 37.2407 119.775 37.114 120.737 37.114C123.271 37.114 125.145 37.722 126.361 38.938C127.577 40.1287 128.185 42.0033 128.185 44.562V54.328C128.185 55.62 127.59 56.266 126.399 56.266C125.183 56.266 124.575 55.62 124.575 54.328V52.922C124.119 53.986 123.41 54.822 122.447 55.43C121.485 56.038 120.332 56.342 118.989 56.342ZM119.749 53.606C121.117 53.606 122.257 53.1247 123.169 52.162C124.081 51.1993 124.537 49.9833 124.537 48.514V47.488H123.283C121.434 47.488 119.977 47.5767 118.913 47.754C117.875 47.9313 117.127 48.2353 116.671 48.666C116.241 49.0713 116.025 49.6413 116.025 50.376C116.025 51.3387 116.355 52.124 117.013 52.732C117.672 53.3147 118.584 53.606 119.749 53.606ZM137.656 63.106C136.947 63.106 136.453 62.84 136.174 62.308C135.921 61.8013 135.946 61.206 136.25 60.522L138.492 55.506L131.728 39.812C131.424 39.128 131.411 38.52 131.69 37.988C131.994 37.456 132.577 37.19 133.438 37.19C133.894 37.19 134.261 37.304 134.54 37.532C134.844 37.76 135.11 38.1527 135.338 38.71L140.544 51.554L145.826 38.71C146.054 38.1273 146.32 37.7347 146.624 37.532C146.928 37.304 147.346 37.19 147.878 37.19C148.562 37.19 149.031 37.456 149.284 37.988C149.537 38.52 149.525 39.1153 149.246 39.774L139.746 61.624C139.493 62.2067 139.201 62.5993 138.872 62.802C138.568 63.0047 138.163 63.106 137.656 63.106Z" fill="#013684"/>
<path d="M181.16 23.503C181.16 23.503 178.341 21.2352 167.071 26.7218C155.801 32.2083 156.403 31.693 156.403 31.693L148.242 17.3526C148.242 17.3526 171.448 4.24936 174.806 7.6166L181.16 23.503Z" fill="#5CACFC"/>
<path d="M160.153 26.5793C163.091 26.5793 165.473 24.1975 165.473 21.2593C165.473 18.3212 163.091 15.9393 160.153 15.9393C157.215 15.9393 154.833 18.3212 154.833 21.2593C154.833 24.1975 157.215 26.5793 160.153 26.5793Z" fill="#013684"/>
<path d="M160.153 24.0968C161.72 24.0968 162.991 22.8264 162.991 21.2593C162.991 19.6923 161.72 18.4219 160.153 18.4219C158.586 18.4219 157.316 19.6923 157.316 21.2593C157.316 22.8264 158.586 24.0968 160.153 24.0968Z" fill="#5CACFC"/>
<path d="M148.916 17.6302C148.916 17.6302 167.381 3.81851 171.664 4.52695C175.948 5.2354 173.512 -1.32769 161.85 7.37523L148.526 17.0944L148.916 17.6302Z" fill="#5CACFC"/>
<path d="M148.795 17.2766C148.795 17.2766 165.614 1.50367 169.952 1.73298C174.289 1.96229 171.139 -4.29425 160.51 5.65177L148.345 16.7866L148.795 17.2766Z" fill="#5CACFC"/>
<path d="M148.575 16.5572L148 17.0561L148.998 18.2079L149.574 17.709L148.575 16.5572Z" fill="#5CACFC"/>
</svg>
